<mxfile host="app.diagrams.net" modified="2022-06-16T18:21:55.842Z" agent="5.0 (Windows NT 10.0; Win64; x64) AppleWebKit/537.36 (KHTML, like Gecko) Chrome/102.0.5005.124 Safari/537.36 Edg/102.0.1245.41" etag="8pJ_X9jAJqzMOv3u4bz6" version="20.0.1" type="github">
  <diagram id="dV5EGTMWUshMltJBMqBj" name="Page-1">
    <mxGraphModel dx="870" dy="626" grid="1" gridSize="10" guides="1" tooltips="1" connect="1" arrows="1" fold="1" page="1" pageScale="1" pageWidth="827" pageHeight="1169" math="0" shadow="0">
      <root>
        <mxCell id="0" />
        <mxCell id="1" parent="0" />
        <mxCell id="BXmMsaARzzcV1XuaGJFT-1" value="Serveur Central" style="rounded=0;whiteSpace=wrap;html=1;direction=south;" vertex="1" parent="1">
          <mxGeometry x="270" y="775" width="60" height="120" as="geometry" />
        </mxCell>
        <mxCell id="BXmMsaARzzcV1XuaGJFT-11" style="edgeStyle=orthogonalEdgeStyle;rounded=0;orthogonalLoop=1;jettySize=auto;html=1;" edge="1" parent="1" source="BXmMsaARzzcV1XuaGJFT-3" target="BXmMsaARzzcV1XuaGJFT-4">
          <mxGeometry relative="1" as="geometry" />
        </mxCell>
        <mxCell id="BXmMsaARzzcV1XuaGJFT-3" value="Build initialisé" style="rounded=1;whiteSpace=wrap;html=1;" vertex="1" parent="1">
          <mxGeometry x="240" y="50" width="120" height="60" as="geometry" />
        </mxCell>
        <mxCell id="BXmMsaARzzcV1XuaGJFT-8" style="edgeStyle=orthogonalEdgeStyle;rounded=0;orthogonalLoop=1;jettySize=auto;html=1;" edge="1" parent="1" source="BXmMsaARzzcV1XuaGJFT-4" target="BXmMsaARzzcV1XuaGJFT-5">
          <mxGeometry relative="1" as="geometry" />
        </mxCell>
        <mxCell id="BXmMsaARzzcV1XuaGJFT-4" value="Realisation d&#39;une nouvelle release" style="rounded=0;whiteSpace=wrap;html=1;" vertex="1" parent="1">
          <mxGeometry x="240" y="170" width="120" height="60" as="geometry" />
        </mxCell>
        <mxCell id="BXmMsaARzzcV1XuaGJFT-9" style="edgeStyle=orthogonalEdgeStyle;rounded=0;orthogonalLoop=1;jettySize=auto;html=1;entryX=0.5;entryY=0;entryDx=0;entryDy=0;" edge="1" parent="1" source="BXmMsaARzzcV1XuaGJFT-5" target="BXmMsaARzzcV1XuaGJFT-6">
          <mxGeometry relative="1" as="geometry" />
        </mxCell>
        <mxCell id="BXmMsaARzzcV1XuaGJFT-5" value="Lancement des testes" style="rounded=1;whiteSpace=wrap;html=1;" vertex="1" parent="1">
          <mxGeometry x="240" y="300" width="120" height="60" as="geometry" />
        </mxCell>
        <mxCell id="BXmMsaARzzcV1XuaGJFT-7" style="edgeStyle=orthogonalEdgeStyle;rounded=0;orthogonalLoop=1;jettySize=auto;html=1;entryX=1;entryY=0.5;entryDx=0;entryDy=0;" edge="1" parent="1" source="BXmMsaARzzcV1XuaGJFT-6" target="BXmMsaARzzcV1XuaGJFT-4">
          <mxGeometry relative="1" as="geometry">
            <Array as="points">
              <mxPoint x="430" y="460" />
              <mxPoint x="430" y="200" />
            </Array>
          </mxGeometry>
        </mxCell>
        <mxCell id="BXmMsaARzzcV1XuaGJFT-13" style="edgeStyle=orthogonalEdgeStyle;rounded=0;orthogonalLoop=1;jettySize=auto;html=1;exitX=0.5;exitY=1;exitDx=0;exitDy=0;" edge="1" parent="1" source="BXmMsaARzzcV1XuaGJFT-6">
          <mxGeometry relative="1" as="geometry">
            <mxPoint x="300" y="520" as="targetPoint" />
          </mxGeometry>
        </mxCell>
        <mxCell id="BXmMsaARzzcV1XuaGJFT-6" value="smoke Test" style="rhombus;whiteSpace=wrap;html=1;" vertex="1" parent="1">
          <mxGeometry x="260" y="420" width="80" height="80" as="geometry" />
        </mxCell>
        <mxCell id="BXmMsaARzzcV1XuaGJFT-14" style="edgeStyle=orthogonalEdgeStyle;rounded=0;orthogonalLoop=1;jettySize=auto;html=1;exitX=0.5;exitY=1;exitDx=0;exitDy=0;" edge="1" parent="1" source="BXmMsaARzzcV1XuaGJFT-12">
          <mxGeometry relative="1" as="geometry">
            <mxPoint x="300" y="765" as="targetPoint" />
          </mxGeometry>
        </mxCell>
        <mxCell id="BXmMsaARzzcV1XuaGJFT-12" value="Déployement" style="rounded=1;whiteSpace=wrap;html=1;" vertex="1" parent="1">
          <mxGeometry x="240" y="690" width="120" height="60" as="geometry" />
        </mxCell>
        <mxCell id="BXmMsaARzzcV1XuaGJFT-18" style="edgeStyle=orthogonalEdgeStyle;rounded=0;orthogonalLoop=1;jettySize=auto;html=1;" edge="1" parent="1" source="BXmMsaARzzcV1XuaGJFT-17" target="BXmMsaARzzcV1XuaGJFT-12">
          <mxGeometry relative="1" as="geometry" />
        </mxCell>
        <mxCell id="BXmMsaARzzcV1XuaGJFT-20" style="edgeStyle=orthogonalEdgeStyle;rounded=0;orthogonalLoop=1;jettySize=auto;html=1;entryX=0;entryY=0.5;entryDx=0;entryDy=0;endArrow=classic;endFill=1;" edge="1" parent="1" source="BXmMsaARzzcV1XuaGJFT-17" target="BXmMsaARzzcV1XuaGJFT-4">
          <mxGeometry relative="1" as="geometry">
            <Array as="points">
              <mxPoint x="190" y="585" />
              <mxPoint x="190" y="200" />
            </Array>
          </mxGeometry>
        </mxCell>
        <mxCell id="BXmMsaARzzcV1XuaGJFT-17" value="Teste D&#39;acceptation" style="rhombus;whiteSpace=wrap;html=1;" vertex="1" parent="1">
          <mxGeometry x="240" y="525" width="120" height="120" as="geometry" />
        </mxCell>
      </root>
    </mxGraphModel>
  </diagram>
</mxfile>
